<svg width="348" height="386" viewBox="0 0 348 386" fill="none" xmlns="http://www.w3.org/2000/svg">
<g clip-path="url(#clip0_147_82)">
<path d="M174 363.346C161.272 363.549 148.711 360.418 137.563 354.264L36.2756 294.938C15.5888 282.847 0 255.602 0 231.608V65.5329C0 61.1823 0.855637 56.8744 2.5182 52.8549C4.18077 48.8355 6.61759 45.1834 9.68961 42.1071C12.7616 39.0307 16.4088 36.5905 20.4226 34.9256C24.4364 33.2607 28.7382 32.4038 33.0827 32.4038H314.81C323.584 32.4038 331.999 35.8941 338.203 42.1071C344.407 48.32 347.893 56.7465 347.893 65.5329V231.608C347.893 255.602 332.304 282.847 311.617 294.938L210.329 354.264C199.213 360.4 186.692 363.53 174 363.346Z" fill="#FF8B00"/>
<path d="M174 385.458C162.783 385.642 151.731 382.742 142.044 377.075L53.1794 322.209C35.0415 311.005 21.3577 285.802 21.3577 263.609V30.7915C21.3577 13.8642 34.3708 0.134277 50.389 0.134277H297.611C313.71 0.134277 326.643 13.8642 326.643 30.7915V263.743C326.643 285.937 312.959 311.139 294.821 322.344L205.983 377.21C196.272 382.827 185.212 385.679 174 385.458Z" fill="#FF8B00"/>
<path d="M174 353.968C162.23 354.153 150.615 351.264 140.3 345.585L46.6058 290.692C27.4752 279.488 13.04 254.312 13.04 232.119V72.438C13.04 64.3072 16.2655 56.5094 22.0068 50.7601C27.7481 45.0107 35.5349 41.7808 43.6543 41.7808H304.346C312.465 41.7808 320.252 45.0107 325.993 50.7601C331.735 56.5094 334.96 64.3072 334.96 72.438V232.119C334.96 254.312 320.525 279.488 301.394 290.692L207.7 345.585C197.385 351.264 185.77 354.153 174 353.968Z" fill="#27350A"/>
<path d="M38.4758 163.066V90.3862H68.2852V99.5485H51.7304V120.721H65.146V129.964H51.7304V163.066H38.4758Z" fill="white"/>
<path d="M69.6536 163.066L84.1425 90.3862H98.3092L112.959 163.066H100.67L97.6921 146.327H85.0546L82.1033 163.12L69.6536 163.066ZM86.3962 137.836H96.2433L91.3063 107.34L86.3962 137.836Z" fill="white"/>
<path d="M119.882 163.066L121.143 90.3862H134.853L145.156 140.711L155.889 90.3862H169.305L170.646 163.066H160.799L159.699 112.553L149.423 163.066H141.373L130.909 112.365L129.916 163.066H119.882Z" fill="white"/>
<path d="M181.62 163.066V90.3862H194.687V163.066H181.62Z" fill="white"/>
<path d="M205.902 163.066V90.3862H219.157V153.904H236.704V163.066H205.902Z" fill="white"/>
<path d="M243.6 163.066V90.3862H256.855V153.904H274.429V163.066H243.6Z" fill="white"/>
<path d="M286.959 163.066V135.338L272.282 90.3862H284.678L293.64 119.189L302.065 90.3862H314.193L299.677 135.338V163.066H286.959Z" fill="white"/>
<path d="M119.345 208.501C118.717 209.008 118.033 209.44 117.306 209.791C116.525 210.151 115.706 210.422 114.864 210.597C113.891 210.777 112.903 210.867 111.913 210.865C110.328 210.885 108.756 210.573 107.298 209.952C105.929 209.38 104.688 208.54 103.649 207.48C102.592 206.439 101.769 205.184 101.234 203.799C100.64 202.36 100.339 200.816 100.349 199.258C100.336 197.709 100.638 196.173 101.234 194.744C101.773 193.354 102.596 192.091 103.649 191.036C104.696 189.947 105.956 189.087 107.351 188.511C108.855 187.883 110.472 187.572 112.101 187.597C113.072 187.59 114.042 187.671 114.998 187.839C115.805 188.012 116.595 188.255 117.36 188.564C118.052 188.856 118.709 189.226 119.318 189.666C119.908 190.087 120.464 190.555 120.982 191.063L117.842 194.69C117.038 193.951 116.135 193.327 115.159 192.836C114.199 192.366 113.142 192.127 112.074 192.138C111.148 192.122 110.231 192.315 109.391 192.702C108.599 193.044 107.893 193.558 107.325 194.207C106.736 194.87 106.273 195.635 105.956 196.464C105.641 197.324 105.486 198.235 105.5 199.151C105.492 200.066 105.647 200.976 105.956 201.838C106.274 202.66 106.727 203.423 107.298 204.094C107.889 204.762 108.617 205.294 109.432 205.656C110.246 206.018 111.129 206.2 112.02 206.19C113.152 206.235 114.278 205.994 115.293 205.492C116.262 204.956 117.163 204.307 117.977 203.557L121.116 206.754C120.582 207.392 119.989 207.976 119.345 208.501Z" fill="white"/>
<path d="M141.722 205.438C141.262 206.453 140.605 207.366 139.79 208.125C138.947 208.963 137.943 209.621 136.839 210.06C135.648 210.552 134.371 210.799 133.082 210.785C131.815 210.79 130.558 210.553 129.38 210.087C128.287 209.653 127.293 209.004 126.455 208.179C125.628 207.373 124.963 206.415 124.496 205.358C124.019 204.247 123.781 203.047 123.799 201.838C123.781 200.637 124.019 199.446 124.496 198.345C124.956 197.276 125.621 196.308 126.455 195.497C127.31 194.653 128.322 193.987 129.433 193.535C130.619 193.062 131.886 192.825 133.163 192.837C134.43 192.832 135.687 193.069 136.866 193.535C137.963 193.975 138.966 194.622 139.817 195.443C140.622 196.211 141.277 197.122 141.749 198.13C142.235 199.239 142.482 200.439 142.473 201.65C142.518 202.954 142.261 204.25 141.722 205.438ZM137.617 201.945C137.621 201.322 137.512 200.703 137.295 200.118C137.083 199.56 136.763 199.049 136.356 198.614C135.957 198.16 135.462 197.802 134.907 197.566C134.328 197.293 133.695 197.156 133.056 197.163C132.41 197.158 131.771 197.286 131.177 197.539C130.645 197.776 130.169 198.124 129.782 198.56C129.4 199.005 129.1 199.514 128.897 200.065C128.688 200.65 128.588 201.27 128.602 201.892C128.597 202.515 128.706 203.134 128.924 203.719C129.126 204.275 129.436 204.787 129.836 205.223C130.239 205.671 130.733 206.028 131.285 206.271C131.862 206.549 132.496 206.687 133.136 206.674C133.782 206.683 134.422 206.554 135.014 206.298C135.546 206.055 136.023 205.705 136.415 205.271C136.807 204.837 137.107 204.327 137.295 203.772C137.512 203.188 137.621 202.569 137.617 201.945Z" fill="white"/>
<path d="M167.426 210.462V200.843C167.518 199.885 167.251 198.927 166.675 198.156C166.409 197.861 166.081 197.628 165.715 197.474C165.348 197.321 164.952 197.251 164.555 197.27C164.15 197.243 163.743 197.309 163.367 197.463C162.99 197.616 162.654 197.853 162.382 198.156C161.785 198.917 161.506 199.881 161.604 200.843V210.462H156.694V200.843C156.779 199.89 156.522 198.938 155.97 198.156C155.701 197.857 155.368 197.622 154.997 197.469C154.625 197.315 154.224 197.247 153.823 197.27C153.417 197.243 153.011 197.309 152.634 197.463C152.258 197.616 151.921 197.853 151.65 198.156C151.065 198.924 150.787 199.882 150.872 200.843V210.462H145.988V193.186H150.872V195.658C151.147 195.284 151.452 194.934 151.784 194.61C152.116 194.263 152.496 193.964 152.911 193.723C153.329 193.442 153.792 193.234 154.279 193.105C154.826 192.935 155.397 192.853 155.97 192.863C156.992 192.835 158.003 193.086 158.894 193.589C159.729 194.059 160.402 194.771 160.826 195.631C161.504 194.773 162.354 194.069 163.321 193.562C164.309 193.089 165.392 192.85 166.487 192.863C167.275 192.821 168.063 192.942 168.802 193.219C169.541 193.497 170.215 193.925 170.78 194.475C171.887 195.802 172.435 197.507 172.31 199.231V210.462H167.426Z" fill="white"/>
<path d="M192.648 202.939C192.659 203.136 192.659 203.333 192.648 203.53H180.654C180.812 204.529 181.327 205.436 182.103 206.083C182.884 206.643 183.826 206.935 184.786 206.916C185.53 206.927 186.269 206.79 186.96 206.513C187.693 206.157 188.371 205.695 188.972 205.143L191.655 207.641C190.856 208.636 189.848 209.443 188.704 210.006C187.419 210.603 186.014 210.897 184.598 210.865C183.379 210.877 182.168 210.659 181.03 210.221C179.951 209.815 178.972 209.183 178.159 208.367C177.351 207.613 176.711 206.698 176.281 205.68C175.805 204.531 175.568 203.296 175.583 202.053C175.576 200.858 175.795 199.673 176.227 198.56C176.61 197.502 177.203 196.533 177.971 195.712C178.727 194.886 179.639 194.22 180.654 193.75C181.795 193.263 183.023 193.012 184.263 193.012C185.503 193.012 186.731 193.263 187.872 193.75C188.91 194.229 189.827 194.936 190.555 195.819C191.266 196.71 191.795 197.733 192.111 198.828C192.444 199.972 192.615 201.157 192.621 202.348C192.675 202.563 192.648 202.751 192.648 202.939ZM186.745 197.807C186.425 197.472 186.036 197.209 185.606 197.037C185.175 196.866 184.712 196.789 184.25 196.813C183.787 196.795 183.326 196.873 182.896 197.045C182.467 197.216 182.077 197.476 181.754 197.807C181.087 198.561 180.658 199.496 180.52 200.494H187.899C187.789 199.504 187.387 198.569 186.745 197.807ZM182.291 191.278L185.94 185.582L190.152 187.409L186.02 191.278H182.291Z" fill="white"/>
<path d="M206.439 197.995C205.731 197.955 205.023 198.065 204.361 198.32C203.7 198.575 203.1 198.968 202.602 199.473C201.562 200.777 201.062 202.432 201.207 204.095V210.462H196.297V193.186H201.207V196.679C201.634 195.579 202.325 194.601 203.219 193.831C204.222 193.087 205.465 192.743 206.707 192.863V197.995H206.439Z" fill="white"/>
<path d="M222.081 209.979C220.782 210.621 219.343 210.926 217.896 210.866C216.669 210.877 215.453 210.63 214.327 210.14C213.251 209.706 212.274 209.057 211.456 208.232C210.651 207.43 210.004 206.482 209.551 205.438C209.095 204.34 208.867 203.161 208.88 201.972C208.863 199.61 209.768 197.334 211.403 195.631C212.218 194.79 213.194 194.123 214.274 193.67C216.038 192.873 218.009 192.657 219.904 193.053C221.799 193.448 223.519 194.436 224.818 195.873L221.813 199.097C221.301 198.562 220.724 198.092 220.096 197.7C219.416 197.349 218.66 197.173 217.896 197.189C217.311 197.18 216.731 197.309 216.205 197.566C215.693 197.811 215.237 198.158 214.864 198.587C214.49 199.033 214.2 199.542 214.005 200.091C213.796 200.677 213.696 201.296 213.71 201.918C213.696 202.558 213.796 203.195 214.005 203.799C214.209 204.349 214.509 204.859 214.891 205.304C215.278 205.74 215.753 206.088 216.286 206.325C216.851 206.578 217.464 206.707 218.084 206.701C218.83 206.707 219.566 206.532 220.23 206.19C220.885 205.822 221.489 205.371 222.028 204.847L224.899 207.749C224.091 208.645 223.139 209.399 222.081 209.979Z" fill="white"/>
<path d="M228.333 191.278V186.925H233.485V191.278H228.333ZM228.333 210.462V193.186H233.243V210.462H228.333Z" fill="white"/>
<path d="M255.003 205.438C254.544 206.507 253.878 207.475 253.045 208.286C252.192 209.125 251.179 209.782 250.066 210.221C248.885 210.713 247.616 210.96 246.337 210.946C245.069 210.955 243.812 210.718 242.634 210.248C241.537 209.809 240.534 209.161 239.683 208.34C238.836 207.516 238.162 206.53 237.701 205.441C237.24 204.352 237.002 203.182 237 201.999C237.002 200.816 237.24 199.646 237.701 198.557C238.162 197.468 238.836 196.482 239.683 195.658C240.532 194.821 241.534 194.155 242.634 193.696C243.822 193.228 245.087 192.991 246.364 192.998C247.631 192.988 248.889 193.226 250.066 193.696C251.167 194.129 252.171 194.778 253.018 195.604C253.877 196.419 254.559 197.403 255.021 198.494C255.483 199.585 255.714 200.76 255.701 201.945C255.705 203.145 255.468 204.333 255.003 205.438ZM250.871 201.945C250.876 201.322 250.767 200.702 250.549 200.118C250.347 199.555 250.027 199.042 249.61 198.613C249.192 198.16 248.687 197.798 248.124 197.549C247.561 197.299 246.953 197.168 246.337 197.163C245.691 197.154 245.051 197.282 244.459 197.539C243.922 197.768 243.445 198.118 243.063 198.56C242.663 198.991 242.36 199.504 242.178 200.064C241.961 200.649 241.852 201.268 241.856 201.891C241.852 202.515 241.961 203.134 242.178 203.718C242.39 204.276 242.709 204.787 243.117 205.223C243.511 205.67 243.996 206.028 244.539 206.271C245.118 206.543 245.751 206.681 246.39 206.674C247.045 206.682 247.693 206.554 248.295 206.298C248.824 206.054 249.299 205.707 249.691 205.277C250.073 204.832 250.372 204.322 250.576 203.772C250.772 203.183 250.872 202.566 250.871 201.945Z" fill="white"/>
<path d="M114.274 265.946C114.274 266.134 114.274 266.323 114.274 266.564H102.227C102.388 267.561 102.914 268.461 103.702 269.09C104.477 269.665 105.421 269.967 106.385 269.95C107.141 269.968 107.892 269.821 108.586 269.52C109.32 269.19 109.991 268.735 110.571 268.176L113.254 270.648C112.446 271.652 111.43 272.468 110.276 273.04C108.998 273.625 107.603 273.909 106.198 273.873C104.969 273.884 103.75 273.665 102.602 273.228C101.528 272.826 100.55 272.204 99.7313 271.401C98.9424 270.631 98.3052 269.72 97.8531 268.714C97.387 267.563 97.1588 266.329 97.1823 265.087C97.1822 263.904 97.391 262.73 97.7994 261.62C98.2083 260.561 98.8087 259.587 99.5703 258.746C100.329 257.931 101.241 257.273 102.253 256.811C103.346 256.341 104.525 256.103 105.715 256.112C107.002 256.069 108.281 256.337 109.444 256.892C110.481 257.373 111.397 258.08 112.127 258.961C112.834 259.854 113.362 260.876 113.684 261.97C114.009 263.114 114.172 264.299 114.166 265.49V266.161L114.274 265.946ZM108.371 260.841C108.049 260.506 107.661 260.242 107.231 260.066C106.801 259.891 106.34 259.807 105.876 259.82C105.414 259.808 104.955 259.89 104.526 260.061C104.097 260.232 103.707 260.488 103.38 260.814C102.703 261.562 102.272 262.5 102.146 263.501H109.525C109.421 262.517 109.018 261.589 108.371 260.841Z" fill="white"/>
<path d="M139.79 270.729C139.464 271.41 138.986 272.007 138.395 272.475C137.752 272.929 137.035 273.265 136.275 273.469C135.404 273.721 134.499 273.839 133.592 273.819C132.325 273.806 131.067 273.597 129.863 273.201C128.538 272.742 127.296 272.07 126.187 271.212L128.28 267.988C129.106 268.611 130.007 269.125 130.963 269.52C131.819 269.851 132.728 270.024 133.646 270.03C134.188 270.074 134.731 269.953 135.202 269.681C135.361 269.589 135.493 269.455 135.583 269.295C135.672 269.134 135.717 268.952 135.712 268.767C135.705 268.513 135.599 268.272 135.417 268.096C135.185 267.886 134.923 267.714 134.639 267.585L133.485 267.182L132.143 266.779C131.523 266.6 130.914 266.385 130.319 266.134C129.719 265.898 129.158 265.571 128.655 265.167C128.163 264.766 127.753 264.273 127.448 263.716C127.132 263.054 126.975 262.327 126.992 261.593C126.976 260.788 127.141 259.989 127.475 259.256C127.829 258.608 128.307 258.038 128.883 257.576C129.459 257.115 130.12 256.773 130.829 256.569C131.632 256.34 132.462 256.223 133.297 256.22C134.427 256.23 135.549 256.411 136.624 256.757C137.725 257.092 138.772 257.58 139.736 258.208L137.885 261.62C137.08 261.154 136.236 260.759 135.363 260.438C134.669 260.171 133.933 260.025 133.19 260.008C132.72 259.976 132.252 260.089 131.848 260.331C131.71 260.428 131.597 260.556 131.517 260.706C131.438 260.855 131.395 261.021 131.392 261.19C131.396 261.312 131.424 261.432 131.475 261.543C131.525 261.653 131.597 261.753 131.687 261.835C131.918 262.045 132.181 262.217 132.465 262.346C132.821 262.524 133.188 262.676 133.565 262.803C133.995 262.964 134.424 263.125 134.907 263.259C135.39 263.394 136.114 263.689 136.758 263.958C137.354 264.215 137.913 264.549 138.422 264.952C138.914 265.332 139.324 265.807 139.629 266.349C139.967 266.975 140.134 267.68 140.112 268.391C140.163 269.184 140.053 269.979 139.79 270.729Z" fill="white"/>
<path d="M159.833 265.946C159.833 266.134 159.833 266.323 159.833 266.564H147.84C148.001 267.561 148.527 268.461 149.315 269.09C150.09 269.665 151.034 269.967 151.998 269.95C152.754 269.968 153.505 269.821 154.199 269.52C154.933 269.19 155.604 268.735 156.184 268.176L158.867 270.648C158.059 271.652 157.043 272.468 155.889 273.04C154.611 273.625 153.216 273.909 151.811 273.873C150.582 273.884 149.363 273.665 148.215 273.228C147.141 272.826 146.163 272.204 145.344 271.401C144.555 270.631 143.918 269.72 143.466 268.714C143 267.563 142.772 266.329 142.795 265.087C142.795 263.904 143.004 262.73 143.412 261.62C143.821 260.561 144.422 259.587 145.183 258.746C145.942 257.931 146.854 257.273 147.866 256.811C148.959 256.341 150.138 256.103 151.328 256.112C152.615 256.069 153.894 256.337 155.057 256.892C156.094 257.373 157.01 258.08 157.74 258.961C158.447 259.854 158.975 260.876 159.297 261.97C159.622 263.114 159.785 264.299 159.78 265.49V266.161L159.833 265.946ZM153.903 260.841C153.589 260.504 153.206 260.239 152.78 260.062C152.354 259.886 151.896 259.804 151.435 259.82C150.974 259.808 150.514 259.89 150.085 260.061C149.657 260.232 149.267 260.488 148.94 260.814C148.263 261.562 147.832 262.5 147.706 263.501H155.084C154.983 262.511 154.57 261.58 153.903 260.841Z" fill="white"/>
<path d="M173.624 261.03C172.913 260.988 172.2 261.099 171.534 261.354C170.868 261.608 170.264 262.002 169.761 262.507C168.737 263.809 168.239 265.449 168.365 267.102V273.497H163.482V256.22H168.365V259.686C168.805 258.593 169.505 257.625 170.404 256.865C171.387 256.101 172.63 255.754 173.866 255.898V261.03H173.624Z" fill="white"/>
<path d="M186.638 273.631H182.183L175.395 256.22H180.574L184.437 267.8L188.328 256.22H193.453L186.638 273.631Z" fill="white"/>
<path d="M196.35 254.312V249.959H201.502V254.312H196.35ZM196.35 273.496V256.22H201.502V273.496H196.35Z" fill="white"/>
<path d="M208.827 272.261C208.077 271.712 207.417 271.05 206.868 270.299C206.313 269.538 205.879 268.695 205.58 267.801C205.288 266.871 205.143 265.901 205.151 264.926C205.137 263.719 205.366 262.522 205.822 261.406C206.259 260.342 206.886 259.368 207.673 258.531C208.496 257.706 209.471 257.05 210.544 256.596C211.702 256.123 212.942 255.886 214.193 255.898C215.487 255.829 216.779 256.055 217.973 256.557C219.167 257.06 220.232 257.826 221.089 258.8L218.084 262.024C217.578 261.481 217 261.011 216.366 260.627C215.691 260.264 214.932 260.088 214.166 260.116C213.581 260.107 213.002 260.236 212.476 260.492C211.964 260.737 211.507 261.085 211.134 261.513C210.761 261.969 210.47 262.488 210.276 263.045C210.067 263.622 209.967 264.232 209.981 264.845C209.966 265.485 210.066 266.121 210.276 266.726C210.473 267.287 210.773 267.806 211.161 268.257C211.548 268.694 212.024 269.042 212.556 269.278C213.117 269.545 213.733 269.674 214.354 269.655C215.098 269.67 215.835 269.504 216.501 269.171C217.149 268.794 217.753 268.343 218.298 267.827L221.169 270.729C220.38 271.553 219.476 272.259 218.486 272.825C217.356 273.444 216.098 273.794 214.81 273.846L212.717 279.085L208.639 277.366L211.322 273.497C210.427 273.228 209.583 272.81 208.827 272.261Z" fill="white"/>
<path d="M241.48 268.391C241.024 269.462 240.358 270.431 239.522 271.239C238.664 272.059 237.664 272.715 236.57 273.174C235.383 273.642 234.117 273.879 232.841 273.873C231.575 273.891 230.317 273.663 229.138 273.201C228.042 272.758 227.041 272.111 226.187 271.293C225.332 270.475 224.654 269.49 224.192 268.4C223.731 267.309 223.497 266.136 223.504 264.952C223.501 263.753 223.739 262.565 224.201 261.459C224.674 260.397 225.338 259.432 226.16 258.611C227.953 256.863 230.365 255.897 232.868 255.924C234.137 255.901 235.397 256.139 236.57 256.623C237.666 257.053 238.669 257.691 239.522 258.504C240.35 259.313 241.007 260.282 241.454 261.352C241.94 262.451 242.187 263.642 242.178 264.845C242.199 266.063 241.961 267.272 241.48 268.391ZM237.375 264.872C237.378 264.257 237.268 263.647 237.053 263.071C236.835 262.509 236.517 261.99 236.114 261.54C235.701 261.102 235.21 260.747 234.665 260.492C234.089 260.244 233.468 260.116 232.841 260.116C232.187 260.108 231.538 260.236 230.936 260.492C230.407 260.735 229.933 261.083 229.541 261.513C229.159 261.948 228.859 262.449 228.655 262.991C228.462 263.581 228.362 264.197 228.36 264.818C228.353 265.442 228.462 266.061 228.682 266.645C228.884 267.216 229.204 267.738 229.621 268.176C230.029 268.607 230.511 268.962 231.043 269.224C231.627 269.48 232.258 269.608 232.894 269.601C233.541 269.622 234.184 269.493 234.773 269.224C235.308 269.004 235.785 268.664 236.168 268.23C236.569 267.799 236.871 267.286 237.053 266.726C237.271 266.141 237.38 265.522 237.375 264.899V264.872Z" fill="white"/>
<path d="M257.847 270.729C257.521 271.41 257.044 272.007 256.452 272.475C255.809 272.929 255.092 273.265 254.332 273.469C253.461 273.721 252.556 273.839 251.649 273.819C250.382 273.806 249.124 273.597 247.92 273.201C246.595 272.742 245.353 272.07 244.244 271.212L246.337 267.988C247.163 268.611 248.064 269.125 249.02 269.52C249.876 269.851 250.785 270.024 251.703 270.03C252.245 270.074 252.788 269.953 253.259 269.681C253.418 269.589 253.55 269.455 253.64 269.295C253.73 269.134 253.774 268.952 253.769 268.767C253.762 268.513 253.656 268.272 253.474 268.096C253.242 267.886 252.98 267.714 252.696 267.585L251.542 267.182L250.2 266.779C249.58 266.6 248.971 266.385 248.376 266.134C247.776 265.898 247.215 265.571 246.712 265.167C246.22 264.766 245.81 264.273 245.505 263.716C245.189 263.054 245.032 262.327 245.049 261.593C245.033 260.788 245.198 259.989 245.532 259.256C245.886 258.608 246.365 258.038 246.94 257.576C247.516 257.115 248.177 256.773 248.886 256.569C249.689 256.34 250.519 256.223 251.354 256.22C252.484 256.23 253.606 256.411 254.681 256.757C255.782 257.092 256.829 257.58 257.794 258.208L255.916 261.62C255.122 261.15 254.287 260.754 253.42 260.438C252.726 260.171 251.991 260.025 251.247 260.008C250.777 259.976 250.309 260.089 249.905 260.331C249.767 260.428 249.654 260.556 249.574 260.706C249.495 260.855 249.452 261.021 249.449 261.19C249.453 261.312 249.481 261.432 249.532 261.543C249.582 261.653 249.655 261.753 249.744 261.835C249.976 262.045 250.238 262.217 250.522 262.346C250.878 262.524 251.246 262.676 251.622 262.803C252.052 262.964 252.481 263.125 252.964 263.259C253.584 263.461 254.192 263.695 254.789 263.958C255.396 264.208 255.965 264.543 256.479 264.952C256.964 265.34 257.373 265.813 257.686 266.349C258.025 266.975 258.191 267.68 258.169 268.391C258.22 269.184 258.11 269.979 257.847 270.729Z" fill="white"/>
<path d="M71.666 242.705L66.8364 235.504H62.9459V242.705H57.9822V220.135H68.2852C70.5435 219.996 72.7725 220.705 74.537 222.124C75.2855 222.797 75.8758 223.628 76.2655 224.557C76.6552 225.487 76.8347 226.491 76.7908 227.497C76.8578 229.093 76.3851 230.664 75.4493 231.958C74.5489 233.113 73.3392 233.989 71.9611 234.483L77.3273 242.544L71.666 242.705ZM71.666 227.847C71.699 227.389 71.6212 226.93 71.439 226.509C71.2568 226.088 70.9756 225.717 70.6195 225.428C69.7898 224.845 68.7872 224.561 67.7754 224.622H62.8386V231.098H67.856C68.8246 231.144 69.7774 230.839 70.5391 230.238C70.8627 229.948 71.1192 229.592 71.2907 229.193C71.4621 228.793 71.5445 228.362 71.5319 227.927L71.666 227.847Z" fill="white"/>
<path d="M96.8606 235.182C96.8606 235.343 96.8606 235.558 96.8606 235.773H84.8403C85.0071 236.775 85.5315 237.682 86.3159 238.326C87.0972 238.886 88.0384 239.178 88.999 239.158C89.743 239.17 90.4818 239.033 91.1724 238.755C91.9062 238.399 92.5842 237.938 93.1847 237.385L95.8678 239.884C95.0685 240.879 94.061 241.686 92.9165 242.248C91.6266 242.825 90.2229 243.1 88.8112 243.054C87.5833 243.063 86.3642 242.845 85.2158 242.41C84.1469 242.001 83.1774 241.369 82.3717 240.556C81.5638 239.797 80.9161 238.883 80.4668 237.869C80.0135 236.714 79.7858 235.482 79.796 234.242C79.7891 233.047 80.0075 231.862 80.4399 230.749C80.8225 229.691 81.4159 228.722 82.184 227.901C82.9324 227.067 83.8463 226.399 84.8671 225.939C85.9601 225.469 87.1387 225.231 88.3283 225.241C89.6146 225.211 90.8907 225.477 92.0578 226.02C93.0988 226.494 94.0168 227.202 94.7409 228.089C95.442 228.986 95.9697 230.007 96.297 231.098C96.6208 232.243 96.7833 233.428 96.78 234.618V235.316L96.8606 235.182ZM90.9577 230.05C90.6366 229.716 90.2479 229.454 89.8175 229.282C89.3871 229.111 88.9251 229.034 88.4624 229.056C88.0001 229.037 87.5391 229.116 87.1092 229.287C86.6793 229.459 86.2902 229.718 85.9671 230.05C85.3 230.804 84.8705 231.739 84.7328 232.737H92.1114C91.9937 231.744 91.5826 230.808 90.9308 230.05H90.9577Z" fill="white"/>
<path d="M117.95 237.922C117.553 238.965 116.961 239.923 116.206 240.744C115.503 241.485 114.653 242.071 113.711 242.463C112.771 242.835 111.769 243.027 110.759 243.027C109.629 243.075 108.507 242.815 107.512 242.275C106.712 241.785 105.988 241.179 105.366 240.475V247.864H100.483V225.429H105.366V227.9C105.971 227.101 106.717 226.418 107.566 225.885C108.538 225.335 109.643 225.065 110.759 225.106C111.764 225.102 112.759 225.304 113.684 225.697C114.636 226.085 115.496 226.671 116.206 227.417C116.954 228.192 117.546 229.104 117.95 230.104C118.42 231.329 118.648 232.634 118.621 233.946C118.673 235.303 118.445 236.657 117.95 237.922ZM113.711 234.053C113.717 233.377 113.608 232.705 113.388 232.065C113.178 231.512 112.869 231.003 112.476 230.56C112.092 230.152 111.638 229.815 111.135 229.566C110.617 229.349 110.06 229.239 109.498 229.244C108.945 229.236 108.396 229.346 107.888 229.566C107.377 229.802 106.921 230.14 106.547 230.56C106.154 230.997 105.852 231.509 105.661 232.065C105.421 232.7 105.302 233.374 105.312 234.053C105.299 234.724 105.417 235.39 105.661 236.015C105.859 236.576 106.159 237.095 106.547 237.546C106.922 237.959 107.378 238.288 107.888 238.514C108.39 238.755 108.941 238.875 109.498 238.863C110.063 238.872 110.623 238.753 111.135 238.514C111.636 238.275 112.091 237.947 112.476 237.546C112.857 237.096 113.165 236.588 113.388 236.042C113.61 235.403 113.719 234.73 113.711 234.053Z" fill="white"/>
<path d="M132.358 230.238C131.65 230.196 130.941 230.306 130.28 230.561C129.618 230.815 129.018 231.209 128.521 231.716C127.474 233.017 126.965 234.671 127.099 236.337V242.705H122.216V225.429H127.099V228.921C127.546 227.825 128.245 226.849 129.138 226.073C130.141 225.33 131.384 224.985 132.626 225.106V230.238H132.358Z" fill="white"/>
<path d="M151.757 235.182C151.768 235.378 151.768 235.576 151.757 235.773H139.79C139.948 236.771 140.463 237.679 141.239 238.325C142.02 238.885 142.962 239.178 143.922 239.158C144.666 239.169 145.405 239.032 146.096 238.755C146.829 238.399 147.507 237.937 148.108 237.385L150.791 239.884C149.992 240.878 148.984 241.685 147.84 242.248C146.555 242.845 145.15 243.139 143.734 243.108C142.515 243.12 141.304 242.901 140.166 242.463C139.088 242.058 138.109 241.426 137.295 240.609C136.488 239.855 135.848 238.94 135.417 237.922C134.941 236.773 134.704 235.539 134.719 234.295C134.712 233.1 134.931 231.915 135.363 230.802C135.746 229.744 136.339 228.775 137.107 227.954C137.863 227.129 138.775 226.462 139.79 225.992C140.931 225.505 142.159 225.254 143.399 225.254C144.639 225.254 145.867 225.505 147.008 225.992C148.046 226.471 148.964 227.178 149.691 228.061C150.402 228.952 150.931 229.975 151.247 231.071C151.58 232.215 151.751 233.399 151.757 234.59C151.784 234.805 151.757 234.993 151.757 235.182ZM145.854 230.05C145.534 229.714 145.146 229.451 144.715 229.28C144.284 229.108 143.822 229.032 143.359 229.056C142.897 229.037 142.436 229.116 142.006 229.287C141.576 229.458 141.187 229.718 140.864 230.05C140.196 230.804 139.767 231.739 139.629 232.737H147.008C146.898 231.746 146.496 230.811 145.854 230.05Z" fill="white"/>
<path d="M167.561 239.964C167.242 240.643 166.764 241.233 166.165 241.684C165.527 242.151 164.808 242.497 164.046 242.705C163.17 242.934 162.267 243.043 161.363 243.027C160.085 243.028 158.816 242.819 157.606 242.409C156.283 241.967 155.047 241.294 153.957 240.421L156.05 237.197C156.869 237.837 157.772 238.361 158.733 238.755C159.589 239.089 160.498 239.262 161.416 239.266C161.958 239.31 162.501 239.188 162.973 238.916C163.124 238.811 163.247 238.67 163.331 238.506C163.415 238.343 163.458 238.16 163.455 237.976C163.456 237.726 163.36 237.485 163.187 237.304C162.949 237.097 162.677 236.933 162.382 236.821C162.017 236.657 161.641 236.523 161.255 236.418L159.887 235.988C159.268 235.814 158.659 235.608 158.062 235.37C157.471 235.132 156.919 234.806 156.426 234.403C155.885 233.974 155.451 233.426 155.157 232.802C154.864 232.177 154.72 231.492 154.735 230.802C154.714 229.993 154.889 229.191 155.245 228.465C155.559 227.791 156.017 227.195 156.587 226.718C157.185 226.244 157.868 225.888 158.599 225.67C159.39 225.429 160.214 225.311 161.041 225.321C162.178 225.321 163.308 225.494 164.394 225.831C165.488 226.176 166.526 226.673 167.48 227.309L165.629 230.695C164.823 230.229 163.979 229.834 163.107 229.512C162.421 229.245 161.695 229.1 160.96 229.082C160.478 229.045 159.997 229.168 159.592 229.432C159.457 229.525 159.348 229.649 159.273 229.794C159.198 229.94 159.16 230.101 159.162 230.265C159.16 230.381 159.183 230.496 159.229 230.603C159.275 230.71 159.344 230.805 159.431 230.883C159.667 231.086 159.928 231.258 160.209 231.393L161.336 231.877L162.651 232.334C163.28 232.522 163.898 232.746 164.502 233.005C165.101 233.256 165.661 233.591 166.165 234C166.672 234.382 167.093 234.867 167.4 235.424C167.734 236.041 167.901 236.736 167.882 237.439C167.973 238.294 167.862 239.159 167.561 239.964Z" fill="white"/>
<path d="M187.657 235.182C187.668 235.378 187.668 235.576 187.657 235.773H175.664C175.821 236.771 176.336 237.679 177.112 238.325C177.894 238.885 178.835 239.178 179.796 239.158C180.54 239.169 181.278 239.032 181.969 238.755C182.703 238.399 183.381 237.937 183.981 237.385L186.664 239.884C185.865 240.878 184.858 241.685 183.713 242.248C182.428 242.845 181.024 243.139 179.608 243.108C178.388 243.12 177.178 242.901 176.039 242.463C174.961 242.058 173.982 241.426 173.168 240.609C172.361 239.855 171.721 238.94 171.29 237.922C170.815 236.773 170.577 235.539 170.592 234.295C170.586 233.1 170.804 231.915 171.236 230.802C171.619 229.744 172.212 228.775 172.98 227.954C173.736 227.129 174.648 226.462 175.664 225.992C176.805 225.505 178.032 225.254 179.272 225.254C180.513 225.254 181.74 225.505 182.881 225.992C183.92 226.471 184.837 227.178 185.564 228.061C186.275 228.952 186.804 229.975 187.121 231.071C187.453 232.215 187.625 233.399 187.63 234.59C187.684 234.805 187.657 234.993 187.657 235.182ZM181.754 230.05C181.434 229.714 181.046 229.451 180.615 229.28C180.184 229.108 179.722 229.032 179.259 229.056C178.797 229.037 178.336 229.116 177.906 229.287C177.476 229.458 177.087 229.718 176.764 230.05C176.097 230.804 175.667 231.739 175.529 232.737H182.908C182.798 231.746 182.396 230.811 181.754 230.05Z" fill="white"/>
<path d="M202.226 242.705V233.086C202.311 232.124 202.033 231.166 201.448 230.399C201.177 230.096 200.84 229.859 200.464 229.705C200.087 229.551 199.681 229.485 199.275 229.512C198.858 229.49 198.441 229.558 198.052 229.711C197.663 229.864 197.312 230.099 197.021 230.399C196.414 231.156 196.126 232.119 196.216 233.086V242.705H191.306V225.428H196.136V227.9C196.403 227.52 196.709 227.169 197.048 226.852C197.371 226.506 197.741 226.207 198.148 225.966C198.567 225.685 199.029 225.476 199.516 225.348C200.055 225.18 200.616 225.098 201.18 225.106C201.983 225.05 202.788 225.175 203.535 225.473C204.283 225.77 204.955 226.233 205.5 226.825C206.586 228.142 207.132 229.823 207.029 231.527V242.705H202.226Z" fill="white"/>
<path d="M219.345 242.732C218.646 242.925 217.923 243.016 217.198 243.001C216.511 243.008 215.826 242.926 215.159 242.759C214.563 242.621 214.016 242.324 213.576 241.899C213.119 241.456 212.77 240.914 212.556 240.314C212.272 239.513 212.144 238.664 212.181 237.815V229.62H210.115V225.428H212.234V221.022H217.118V225.428H221.169V229.62H217.064V237.009C217.064 238.137 217.601 238.675 218.647 238.675C219.489 238.684 220.319 238.48 221.062 238.084V242.006C220.521 242.317 219.944 242.561 219.345 242.732Z" fill="white"/>
<path d="M234.853 242.705V240.851C234.236 241.514 233.499 242.052 232.68 242.436C231.717 242.861 230.672 243.063 229.621 243.028C228.84 243.033 228.063 242.924 227.314 242.705C226.63 242.484 225.993 242.138 225.435 241.684C224.892 241.234 224.46 240.664 224.174 240.018C223.84 239.314 223.674 238.541 223.691 237.761C223.676 236.915 223.859 236.078 224.228 235.316C224.548 234.631 225.037 234.039 225.65 233.597C226.316 233.133 227.062 232.796 227.85 232.603C228.725 232.366 229.627 232.249 230.533 232.253C231.298 232.24 232.062 232.303 232.814 232.441C233.469 232.567 234.114 232.737 234.746 232.952V232.683C234.775 232.244 234.706 231.804 234.543 231.395C234.381 230.985 234.129 230.618 233.807 230.319C233.033 229.745 232.084 229.46 231.124 229.513C230.285 229.502 229.449 229.584 228.628 229.754C227.853 229.937 227.092 230.17 226.348 230.453L225.14 226.718C226.093 226.294 227.08 225.953 228.092 225.697C229.316 225.43 230.568 225.304 231.821 225.321C232.847 225.154 233.897 225.229 234.888 225.54C235.88 225.85 236.786 226.388 237.533 227.111C238.281 227.833 238.85 228.72 239.195 229.702C239.54 230.683 239.652 231.732 239.522 232.764V242.786L234.853 242.705ZM234.853 235.746C234.396 235.546 233.919 235.393 233.431 235.289C232.877 235.158 232.31 235.095 231.741 235.101C230.867 235.06 230 235.275 229.245 235.719C228.958 235.913 228.725 236.179 228.57 236.489C228.415 236.8 228.342 237.146 228.36 237.493C228.346 237.792 228.405 238.09 228.531 238.361C228.657 238.632 228.847 238.869 229.084 239.051C229.653 239.435 230.331 239.624 231.016 239.588C231.979 239.622 232.925 239.328 233.699 238.755C234.031 238.5 234.299 238.17 234.481 237.792C234.662 237.414 234.753 236.998 234.746 236.579L234.853 235.746Z" fill="white"/>
<path d="M246.632 241.469C245.095 240.38 243.963 238.811 243.412 237.009C242.737 234.917 242.813 232.655 243.627 230.614C244.519 228.458 246.212 226.734 248.349 225.804C249.508 225.333 250.748 225.096 251.998 225.106C253.39 225.062 254.774 225.328 256.05 225.885C257.127 226.401 258.093 227.122 258.894 228.008L255.889 231.232C255.383 230.689 254.805 230.219 254.171 229.835C253.493 229.48 252.736 229.305 251.971 229.324C251.387 229.322 250.809 229.45 250.281 229.7C249.77 229.947 249.32 230.305 248.966 230.748C248.584 231.193 248.284 231.703 248.081 232.253C247.688 233.448 247.688 234.738 248.081 235.934C248.278 236.495 248.578 237.015 248.966 237.465C249.35 237.911 249.826 238.269 250.361 238.513C250.927 238.767 251.54 238.895 252.159 238.889C252.906 238.899 253.643 238.723 254.306 238.379C254.969 238.012 255.582 237.56 256.13 237.036L259.001 239.937C258.217 240.774 257.312 241.489 256.318 242.06C255.193 242.666 253.945 243.006 252.669 243.054L250.576 248.294L246.471 246.574L249.154 242.705C248.248 242.444 247.394 242.026 246.632 241.469Z" fill="white"/>
<path d="M272.282 242.705V240.851C271.681 241.519 270.951 242.058 270.136 242.436C269.174 242.861 268.128 243.063 267.077 243.027C266.297 243.032 265.519 242.924 264.77 242.705C264.083 242.49 263.445 242.143 262.892 241.684C262.348 241.227 261.909 240.659 261.604 240.018C261.291 239.308 261.135 238.538 261.147 237.761C261.123 236.917 261.298 236.08 261.657 235.316C261.995 234.634 262.492 234.045 263.106 233.596C263.763 233.133 264.5 232.796 265.28 232.602C266.198 232.357 267.146 232.24 268.097 232.253C268.87 232.239 269.643 232.302 270.404 232.441C271.05 232.57 271.686 232.741 272.309 232.952V232.683C272.342 232.246 272.277 231.807 272.119 231.398C271.961 230.989 271.715 230.62 271.397 230.318C270.621 229.751 269.674 229.467 268.714 229.512C267.876 229.502 267.039 229.583 266.219 229.754C265.453 229.937 264.7 230.17 263.965 230.453L262.731 226.718C263.691 226.29 264.688 225.948 265.709 225.697C266.933 225.429 268.185 225.302 269.438 225.321C270.463 225.16 271.511 225.238 272.5 225.551C273.489 225.864 274.392 226.402 275.138 227.123C275.884 227.845 276.453 228.729 276.8 229.708C277.148 230.687 277.263 231.732 277.139 232.764V242.785L272.282 242.705ZM274.724 222.312C274.418 222.727 274.01 223.056 273.54 223.267C273.07 223.479 272.554 223.566 272.041 223.521C271.56 223.526 271.082 223.463 270.619 223.333L269.304 222.903L268.177 222.473C267.87 222.351 267.542 222.287 267.211 222.285C267.01 222.27 266.808 222.298 266.618 222.367C266.428 222.437 266.256 222.546 266.111 222.688C265.816 223.036 265.572 223.425 265.387 223.843L262.704 223.037C262.892 222.392 263.106 221.774 263.321 221.237C263.533 220.733 263.803 220.255 264.126 219.813C264.428 219.445 264.803 219.143 265.226 218.926C265.685 218.703 266.191 218.592 266.702 218.604C267.182 218.598 267.661 218.662 268.124 218.792L269.438 219.222L270.565 219.652C270.87 219.786 271.198 219.859 271.531 219.866C271.735 219.884 271.94 219.854 272.131 219.779C272.322 219.705 272.493 219.588 272.631 219.437C272.933 219.093 273.177 218.703 273.356 218.281L276.039 219.087C275.804 220.234 275.358 221.328 274.724 222.312ZM272.39 235.746C271.925 235.542 271.439 235.389 270.941 235.289C270.388 235.154 269.82 235.091 269.251 235.101C268.385 235.056 267.525 235.271 266.782 235.719C266.491 235.912 266.255 236.176 266.095 236.487C265.935 236.797 265.858 237.143 265.87 237.492C265.861 237.793 265.925 238.092 266.056 238.363C266.187 238.634 266.38 238.87 266.621 239.051C267.187 239.442 267.867 239.631 268.553 239.588C269.515 239.618 270.459 239.324 271.236 238.755C271.568 238.499 271.835 238.169 272.017 237.791C272.199 237.413 272.29 236.998 272.282 236.579L272.39 235.746Z" fill="white"/>
<path d="M298.362 237.68C297.913 238.755 297.246 239.725 296.404 240.528C295.56 241.366 294.557 242.024 293.452 242.463C292.262 242.955 290.984 243.202 289.696 243.188C288.429 243.193 287.172 242.956 285.993 242.49C284.901 242.057 283.906 241.408 283.069 240.582C282.242 239.776 281.576 238.818 281.11 237.761C280.632 236.65 280.394 235.451 280.412 234.241C280.395 233.041 280.633 231.85 281.11 230.748C281.569 229.679 282.235 228.711 283.069 227.9C283.923 227.057 284.935 226.39 286.047 225.939C287.233 225.465 288.5 225.228 289.777 225.24C291.044 225.236 292.301 225.473 293.479 225.939C294.577 226.378 295.579 227.026 296.431 227.846C297.236 228.614 297.891 229.525 298.362 230.533C298.849 231.642 299.096 232.842 299.087 234.053C299.115 235.301 298.868 236.54 298.362 237.68ZM294.257 234.188C294.262 233.564 294.153 232.945 293.935 232.36C293.723 231.802 293.404 231.291 292.996 230.856C292.598 230.402 292.103 230.044 291.547 229.808C290.968 229.535 290.336 229.398 289.696 229.405C289.051 229.4 288.411 229.528 287.818 229.781C287.285 230.018 286.81 230.366 286.423 230.802C286.041 231.247 285.741 231.756 285.537 232.307C285.328 232.893 285.228 233.512 285.242 234.134C285.238 234.757 285.347 235.376 285.564 235.961C285.767 236.517 286.076 237.029 286.476 237.465C286.88 237.913 287.374 238.27 287.925 238.513C288.502 238.791 289.136 238.929 289.777 238.916C290.422 238.925 291.062 238.797 291.655 238.54C292.186 238.297 292.663 237.947 293.055 237.513C293.447 237.079 293.747 236.569 293.935 236.015C294.153 235.43 294.262 234.811 294.257 234.188Z" fill="white"/>
</g>
<defs>
<clipPath id="clip0_147_82">
<rect width="348" height="385.458" fill="white"/>
</clipPath>
</defs>
</svg>
