<svg width="104" height="91" viewBox="0 0 104 91" fill="none" xmlns="http://www.w3.org/2000/svg">
<g clip-path="url(#clip0_128_13)">
<path d="M52 84.3911C48.1943 84.4542 44.4382 83.5225 41.1029 81.6883L10.841 63.9791C4.65872 60.3619 0 52.2372 0 45.0749V19.5618C-8.61229e-07 16.9383 1.0414 14.4222 2.8953 12.5663C4.74921 10.7105 7.2639 9.66677 9.88678 9.66464H94.0811C96.704 9.66677 99.2187 10.7105 101.073 12.5663C102.927 14.4222 103.968 16.9383 103.968 19.5618V45.0749C103.968 52.2372 99.3092 60.3619 93.1349 63.9791L62.865 81.6883C59.5395 83.5178 55.7949 84.4493 52 84.3911Z" fill="#FF8B00"/>
<path d="M52.0001 91C48.6458 91.0509 45.3412 90.1857 42.4421 88.4976L15.8928 72.1118C10.4723 68.7673 6.38281 61.2522 6.38281 54.6273V9.15132C6.38281 4.09042 10.2638 1.52588e-05 15.0588 1.52588e-05H88.9414C93.7525 1.52588e-05 97.6094 4.09042 97.6094 9.15132V54.6273C97.6094 61.2522 93.528 68.7673 88.1074 72.1118L61.5502 88.4976C58.6533 90.1843 55.3516 91.0494 52.0001 91Z" fill="#FF8B00"/>
<path d="M52 81.592C48.4795 81.652 45.0046 80.7892 41.9207 79.0896L13.9201 62.7119C8.20291 59.3674 3.89698 51.8442 3.89698 45.2193V21.6392C3.89592 20.4382 4.13166 19.2487 4.59067 18.1389C5.04968 17.0291 5.72296 16.0208 6.572 15.1715C7.42104 14.3223 8.42913 13.6488 9.53866 13.1897C10.6482 12.7306 11.8374 12.4948 13.0381 12.4958H90.9539C92.1546 12.4948 93.3437 12.7306 94.4533 13.1897C95.5628 13.6488 96.5709 14.3223 97.42 15.1715C98.269 16.0208 98.9423 17.0291 99.4013 18.1389C99.8603 19.2487 100.096 20.4382 100.095 21.6392V45.2193C100.095 51.8442 95.789 59.3674 90.0718 62.7119L62.0712 79.0896C58.9898 80.7882 55.5178 81.6509 52 81.592Z" fill="#27350A"/>
<path d="M11.4905 48.6681V27.0129H20.4071V29.7398H15.4516V36.0599H19.501V38.819H15.4516V48.6681H11.4905Z" fill="white"/>
<path d="M20.8081 48.6681L25.1461 27.0129H29.3558L33.6938 48.6681H30.0294L29.1714 43.6633H25.3947L24.5447 48.6681H20.8081ZM25.8116 41.1449H28.7624L27.287 32.0658L25.8116 41.1449Z" fill="white"/>
<path d="M35.8267 48.6681L36.2035 27.0129H40.301L43.3801 42.0352L46.5875 27.0129H50.5486L50.9495 48.6681H48.0068L47.686 33.5976L44.5909 48.6681H42.1853L39.0501 33.5415L38.7614 48.6681H35.8267Z" fill="white"/>
<path d="M54.2693 48.6681V27.0129H58.2224V48.6681H54.2693Z" fill="white"/>
<path d="M61.5259 48.6681V27.0129H65.487V45.9411H70.7391V48.6681H61.5259Z" fill="white"/>
<path d="M72.8 48.6681V27.0129H76.7612V45.9411H82.0053V48.6681H72.8Z" fill="white"/>
<path d="M85.7579 48.6681V40.399L81.3638 26.9808H85.0603L87.7385 35.5787L90.2964 26.9808H93.9047L89.4945 40.399V48.6681H85.7579Z" fill="white"/>
</g>
<defs>
<clipPath id="clip0_128_13">
<rect width="104" height="91" fill="white"/>
</clipPath>
</defs>
</svg>
